<svg width="1021.8898" height="1445.6693" xmlns="http://www.w3.org/2000/svg">

 <g id="SContent">
  <g id="svg_1">
   <g id="svg_2" transform="matrix(1,0,0,-1,0,1445.6693) ">
    <g id="svg_3" transform="matrix(1,0,0,1,393.3071,1020.4725) ">
     <title>Shape1</title>
     <g id="svg_4">
      <title>Shape1</title>
      <ellipse id="svg_5" stroke-opacity="0" fill="none" stroke-linecap="round" stroke-width="0.75" stroke="#000000" ry="5.314962" rx="5.314961" cy="37.204724" cx="10.629921"/>
     </g>
     <path id="svg_6" fill-rule="evenodd" fill="#FFFFFF" stroke-linecap="round" stroke-width="0.75" stroke="#000000" d="m15.94488,37.20472c0,1.40908 -0.56035,2.76189 -1.55671,3.75825l0,0c-0.99637,0.99637 -2.34917,1.55672 -3.75825,1.55672l0,0c-1.40907,0 -2.76188,-0.56035 -3.75824,-1.55672l0,0c-0.99637,-0.99636 -1.55672,-2.34917 -1.55672,-3.75825l0,0c0,-1.40907 0.56035,-2.76188 1.55672,-3.75824l0,0c0.99636,-0.99637 2.34917,-1.55672 3.75824,-1.55672l0,0c1.40908,0 2.76188,0.56035 3.75825,1.55672l0,0c0.99636,0.99636 1.55671,2.34917 1.55671,3.75824zm-5.31496,-5.31495l0,-17.71654m0,14.17323l-10.62992,0m10.62992,0l10.62992,0m-10.62992,-14.17323l-10.62992,-14.17323m10.62992,14.17323l10.62992,-14.17323"/>
     <g id="svg_7" transform="matrix(1,0,0,1,1.4173231,-27.637794) ">
      <path id="svg_8" fill-rule="evenodd" fill="#FFFFFF" stroke-width="0" d="m0.43212,36.53788l17.56096,0l0,-10.06936l-17.56096,0l0,10.06936z"/>
      <text id="svg_9" transform="matrix(1,0,0,-1,0,23.73449) " fill="#000000" class="TextStyle0" y="-4.949291" x="0.432117">Поль</text>
      <path id="svg_10" fill-rule="evenodd" fill="#FFFFFF" stroke-width="0" d="m1.34239,26.6393l15.74042,0l0,-10.06936l-15.74042,0l0,10.06936z"/>
      <text id="svg_11" transform="matrix(1,0,0,-1,0,23.73449) " fill="#000000" class="TextStyle0" y="4.949291" x="1.342387">зова</text>
      <path id="svg_12" fill-rule="evenodd" fill="#FFFFFF" stroke-width="0" d="m1.22961,16.74072l15.96598,0l0,-10.06936l-15.96598,0l0,10.06936z"/>
      <text id="svg_13" transform="matrix(1,0,0,-1,0,23.73449) " fill="#000000" class="TextStyle0" y="14.847875" x="1.22961">тели</text>
     </g>
    </g>
    <g id="svg_14" transform="matrix(1,0,0,1,403.937,1073.6222) ">
     <title>Dynamic connector.2</title>
     <g id="svg_15">
      <title>Dynamic connector.2</title>
      <path id="svg_16" stroke-opacity="0" fill="none" stroke-linecap="round" stroke-width="0.75" stroke="#000000" d="m0,0l0,31.88976"/>
     </g>
     <path id="svg_17" fill="none" stroke-linecap="round" stroke-width="0.75" stroke="#000000" d="m0,0l0,31.88976"/>
    </g>
    <g id="svg_18" transform="matrix(1,0,0,1,382.67715,1062.9922) ">
     <title>Shape3</title>
     <g id="svg_19">
      <title>Shape3</title>
     </g>
     <g id="svg_20" transform="matrix(1,0,0,1,1.4173231,1.4173231) ">
      <text id="svg_21" transform="matrix(1,0,0,-1,0,11.687244) " fill="#000000" class="TextStyle0" y="4.949291" x="7.158449">*</text>
     </g>
    </g>
    <g id="svg_22" transform="matrix(1,0,0,1,382.67715,1094.882) ">
     <title>Shape4</title>
     <g id="svg_23">
      <title>Shape4</title>
     </g>
     <g id="svg_24" transform="matrix(1,0,0,1,1.4173231,1.4173231) ">
      <text id="svg_25" transform="matrix(1,0,0,-1,0,11.687244) " fill="#000000" class="TextStyle0" y="4.949291" x="7.122199">1</text>
     </g>
    </g>
    <g id="svg_26" transform="matrix(1,0,0,1,361.41733,1116.1417) ">
     <title>Shape5</title>
     <g id="svg_27">
      <title>Shape5</title>
      <ellipse id="svg_28" stroke-opacity="0" fill="none" stroke-linecap="round" stroke-width="0.75" stroke="#000000" ry="28.346457" rx="42.519688" cy="28.346457" cx="42.519685"/>
     </g>
     <ellipse id="svg_29" fill-rule="evenodd" fill="#FFFFFF" stroke-linecap="round" stroke-width="0.75" stroke="#000000" ry="28.346457" rx="42.519688" cy="28.346457" cx="42.519685"/>
     <g id="svg_30" transform="matrix(1,0,0,1,1.4173241,1.4173222) ">
      <text id="svg_31" transform="matrix(1,0,0,-1,0,29.403778) " fill="#000000" class="TextStyle0" y="0" x="16.943958">Использовать</text>
      <text id="svg_32" transform="matrix(1,0,0,-1,0,29.403778) " fill="#000000" class="TextStyle0" y="9.898582" x="18.89943">приложение</text>
     </g>
    </g>
    <g id="svg_33" transform="matrix(1,0,0,1,297.6378,1147.3228) ">
     <title>Dynamic connector.6</title>
     <g id="svg_34">
      <title>Dynamic connector.6</title>
      <path id="svg_35" stroke-opacity="0" fill="none" stroke-width="0.75" stroke="#000000" d="m8.28,8.988663l-8.28,-8.28l8.28,-8.28"/>
      <path id="svg_36" stroke-opacity="0" fill="none" stroke-dasharray="4 3" stroke-linecap="round" stroke-width="0.75" stroke="#000000" d="m53.1496,0.70866l-53.1496,0"/>
     </g>
     <path id="svg_37" fill="none" stroke-width="0.75" stroke="#000000" d="m8.28,8.988663l-8.28,-8.28l8.28,-8.28"/>
     <path id="svg_38" fill="none" stroke-dasharray="4 3" stroke-linecap="round" stroke-width="0.75" stroke="#000000" d="m53.1496,0.70866l-53.1496,0"/>
     <g id="svg_39" transform="matrix(1,0,0,1,-30.47244,-3.8976378) ">
      <path id="svg_40" fill-rule="evenodd" fill="#FFFFFF" stroke-width="0" d="m40.32215,9.075954l32.74153,0l0,-8.37368l-32.74153,0l0,8.37368z"/>
      <text id="svg_41" transform="matrix(1,0,0,-1,0,6.8747244) " fill="#000000" class="TextStyle1" y="4.53685" x="40.32215">Включить</text>
     </g>
    </g>
    <g id="svg_42" transform="matrix(1,0,0,1,201.9685,1123.2284) ">
     <title>Shape7</title>
     <g id="svg_43">
      <title>Shape7</title>
      <ellipse id="svg_44" stroke-opacity="0" fill="none" stroke-linecap="round" stroke-width="0.75" stroke="#000000" ry="28.346457" rx="42.519688" cy="28.346457" cx="42.519685"/>
     </g>
     <ellipse id="svg_45" fill-rule="evenodd" fill="#FFFFFF" stroke-linecap="round" stroke-width="0.75" stroke="#000000" ry="28.346457" rx="42.519688" cy="28.346457" cx="42.519685"/>
     <g id="svg_46" transform="matrix(1,0,0,1,1.4173241,1.4173222) ">
      <text id="svg_47" transform="matrix(1,0,0,-1,0,29.403778) " fill="#000000" class="TextStyle0" y="-9.898582" x="21.716833">Выполнить</text>
      <text id="svg_48" transform="matrix(1,0,0,-1,0,29.403778) " fill="#000000" class="TextStyle0" y="0" x="11.564906">арифметические</text>
      <text id="svg_49" transform="matrix(1,0,0,-1,0,29.403778) " fill="#000000" class="TextStyle0" y="9.898582" x="4.657328">операции над двумя</text>
      <text id="svg_50" transform="matrix(1,0,0,-1,0,29.403778) " fill="#000000" class="TextStyle0" y="19.797165" x="25.164583">числами</text>
     </g>
    </g>
    <g id="svg_51" transform="matrix(1,0,0,1,148.81891,1147.3228) ">
     <title>Dynamic connector.8</title>
     <g id="svg_52">
      <title>Dynamic connector.8</title>
      <path id="svg_53" stroke-opacity="0" fill="none" stroke-dasharray="4 3" stroke-linecap="round" stroke-width="0.75" stroke="#000000" d="m0,0.70866l42.51969,0"/>
     </g>
     <path id="svg_54" fill="none" stroke-dasharray="4 3" stroke-linecap="round" stroke-width="0.75" stroke="#000000" d="m0,0.70866l42.51969,0"/>
    </g>
    <g id="svg_55" transform="matrix(1,0,0,1,74.409454,1126.7717) ">
     <title>Shape9</title>
     <g id="svg_56">
      <title>Shape9</title>
      <path id="svg_57" stroke-opacity="0" fill="none" stroke-linecap="round" stroke-width="0.75" stroke="#000000" d="m0,49.6063l55.98425,0l0,0l11.33858,-11.33858l0,0l0,-38.26772l0,0l-67.32283,0l0,0l0,49.6063"/>
     </g>
     <path id="svg_58" fill-rule="evenodd" fill="#FFFFFF" stroke-linecap="round" stroke-width="0.75" stroke="#000000" d="m0,49.6063l55.98425,0l0,0l11.33858,-11.33858l0,0l0,-38.26772l0,0l-67.32283,0l0,0l0,49.6063"/>
     <path id="svg_59" fill-rule="evenodd" fill="#FFFFFF" stroke-width="0" d="m55.98425,49.6063l0,-11.33858l0,0l11.33858,0l0,0l-11.33858,11.33858"/>
     <path id="svg_60" fill="none" stroke-linecap="round" stroke-width="0.75" stroke="#000000" d="m55.98425,49.6063l0,-11.33858l0,0l11.33858,0"/>
     <g id="svg_61" transform="matrix(1,0,0,1,1.4173203,1.4173241) ">
      <text id="svg_62" transform="matrix(1,0,0,-1,0,25.860474) " fill="#000000" class="TextStyle0" y="-9.898582" x="13.355991">Сложение,</text>
      <text id="svg_63" transform="matrix(1,0,0,-1,0,25.860474) " fill="#000000" class="TextStyle0" y="0" x="12.270514">вычитание,</text>
      <text id="svg_64" transform="matrix(1,0,0,-1,0,25.860474) " fill="#000000" class="TextStyle0" y="9.898582" x="5.884526">произведение,</text>
      <text id="svg_65" transform="matrix(1,0,0,-1,0,25.860474) " fill="#000000" class="TextStyle0" y="19.797165" x="17.24679">деление</text>
     </g>
    </g>
    <g id="svg_66" transform="matrix(1,0,0,1,318.89764,1161.0848) ">
     <title>Dynamic connector.10</title>
     <g id="svg_67">
      <title>Dynamic connector.10</title>
      <path id="svg_68" stroke-opacity="0" fill="none" stroke-width="0.75" stroke="#000000" d="m10.924146,23.053095l-10.924147,-4.216612l4.216612,-10.924147"/>
      <path id="svg_69" stroke-opacity="0" fill="none" stroke-dasharray="4 3" stroke-linecap="round" stroke-width="0.75" stroke="#000000" d="m42.51915,0l-42.51915,18.83649"/>
     </g>
     <path id="svg_70" fill="none" stroke-width="0.75" stroke="#000000" d="m10.924146,23.053095l-10.924147,-4.216612l4.216612,-10.924147"/>
     <path id="svg_71" fill="none" stroke-dasharray="4 3" stroke-linecap="round" stroke-width="0.75" stroke="#000000" d="m42.51915,0l-42.51915,18.83649"/>
     <g id="svg_72" transform="matrix(1,0,0,1,-35.55535,4.865999) ">
      <path id="svg_73" fill-rule="evenodd" fill="#FFFFFF" stroke-width="0" d="m40.32215,9.075954l32.74153,0l0,-8.37368l-32.74153,0l0,8.37368z"/>
      <text id="svg_74" transform="matrix(1,0,0,-1,0,6.8747244) " fill="#000000" class="TextStyle1" y="4.53685" x="40.32215">Включить</text>
     </g>
    </g>
    <g id="svg_75" transform="matrix(1,0,0,1,244.48819,1179.9213) ">
     <title>Shape11</title>
     <g id="svg_76">
      <title>Shape11</title>
      <ellipse id="svg_77" stroke-opacity="0" fill="none" stroke-linecap="round" stroke-width="0.75" stroke="#000000" ry="28.346457" rx="42.519688" cy="28.346457" cx="42.519685"/>
     </g>
     <ellipse id="svg_78" fill-rule="evenodd" fill="#FFFFFF" stroke-linecap="round" stroke-width="0.75" stroke="#000000" ry="28.346457" rx="42.519688" cy="28.346457" cx="42.519685"/>
     <g id="svg_79" transform="matrix(1,0,0,1,1.4173241,1.4173222) ">
      <text id="svg_80" transform="matrix(1,0,0,-1,0,29.403778) " fill="#000000" class="TextStyle0" y="-4.949291" x="5.811274">Перевести символ в</text>
      <text id="svg_81" transform="matrix(1,0,0,-1,0,29.403778) " fill="#000000" class="TextStyle0" y="4.949291" x="14.700505">код кодировки</text>
      <text id="svg_82" transform="matrix(1,0,0,-1,0,29.403778) " fill="#000000" class="TextStyle0" y="14.847875" x="15.792023">Windows-1251</text>
     </g>
    </g>
    <g id="svg_83" transform="matrix(1,0,0,1,318.89764,1229.5276) ">
     <title>Shape12</title>
     <g id="svg_84">
      <title>Shape12</title>
      <ellipse id="svg_85" stroke-opacity="0" fill="none" stroke-linecap="round" stroke-width="0.75" stroke="#000000" ry="28.346457" rx="42.519688" cy="28.346457" cx="42.519685"/>
     </g>
     <ellipse id="svg_86" fill-rule="evenodd" fill="#FFFFFF" stroke-linecap="round" stroke-width="0.75" stroke="#000000" ry="28.346457" rx="42.519688" cy="28.346457" cx="42.519685"/>
     <g id="svg_87" transform="matrix(1,0,0,1,1.4173241,1.4173222) ">
      <text id="svg_88" transform="matrix(1,0,0,-1,0,29.403778) " fill="#000000" class="TextStyle0" y="-4.949291" x="14.400436">Преобразовать</text>
      <text id="svg_89" transform="matrix(1,0,0,-1,0,29.403778) " fill="#000000" class="TextStyle0" y="4.949291" x="6.457727">двузначных чисел в</text>
      <text id="svg_90" transform="matrix(1,0,0,-1,0,29.403778) " fill="#000000" class="TextStyle0" y="14.847875" x="31.127659">слова</text>
     </g>
    </g>
    <g id="svg_91" transform="matrix(1,0,0,1,374.22284,1179.9236) ">
     <title>Dynamic connector.13</title>
     <g id="svg_92">
      <title>Dynamic connector.13</title>
      <path id="svg_93" stroke-opacity="0" fill="none" stroke-width="0.75" stroke="#000000" d="m11.027509,36.353751l-11.027504,3.938394l-3.938394,-11.027504"/>
      <path id="svg_94" stroke-opacity="0" fill="none" stroke-dasharray="4 3" stroke-linecap="round" stroke-width="0.75" stroke="#000000" d="m19.08575,0l-19.08575,40.29214"/>
     </g>
     <path id="svg_95" fill="none" stroke-width="0.75" stroke="#000000" d="m11.027509,36.353751l-11.027504,3.938394l-3.938394,-11.027504"/>
     <path id="svg_96" fill="none" stroke-dasharray="4 3" stroke-linecap="round" stroke-width="0.75" stroke="#000000" d="m19.08575,0l-19.08575,40.29214"/>
     <g id="svg_97" transform="matrix(1,0,0,1,-47.011578,15.24747) ">
      <path id="svg_98" fill-rule="evenodd" fill="#FFFFFF" stroke-width="0" d="m40.32215,9.075954l32.74153,0l0,-8.37368l-32.74153,0l0,8.37368z"/>
      <text id="svg_99" transform="matrix(1,0,0,-1,0,6.8747244) " fill="#000000" class="TextStyle1" y="4.53685" x="40.32215">Включить</text>
     </g>
    </g>
    <g id="svg_100" transform="matrix(1,0,0,1,416.741,1176.3802) ">
     <title>Dynamic connector.14</title>
     <g id="svg_101">
      <title>Dynamic connector.14</title>
      <path id="svg_102" stroke-opacity="0" fill="none" stroke-width="0.75" stroke="#000000" d="m23.024152,29.264638l-3.938394,11.027504l-11.027504,-3.938394"/>
      <path id="svg_103" stroke-opacity="0" fill="none" stroke-dasharray="4 3" stroke-linecap="round" stroke-width="0.75" stroke="#000000" d="m0,0l19.08575,40.29214"/>
     </g>
     <path id="svg_104" fill="none" stroke-width="0.75" stroke="#000000" d="m23.024152,29.264638l-3.938394,11.027504l-11.027504,-3.938394"/>
     <path id="svg_105" fill="none" stroke-dasharray="4 3" stroke-linecap="round" stroke-width="0.75" stroke="#000000" d="m0,0l19.08575,40.29214"/>
     <g id="svg_106" transform="matrix(1,0,0,1,-47.288498,15.24747) ">
      <path id="svg_107" fill-rule="evenodd" fill="#FFFFFF" stroke-width="0" d="m40.32215,9.075954l32.74153,0l0,-8.37368l-32.74153,0l0,8.37368z"/>
      <text id="svg_108" transform="matrix(1,0,0,-1,0,6.8747244) " fill="#000000" class="TextStyle1" y="4.53685" x="40.32215">Включить</text>
     </g>
    </g>
    <g id="svg_109" transform="matrix(1,0,0,1,414.56696,1222.4409) ">
     <title>Shape15</title>
     <g id="svg_110">
      <title>Shape15</title>
      <ellipse id="svg_111" stroke-opacity="0" fill="none" stroke-linecap="round" stroke-width="0.75" stroke="#000000" ry="28.346457" rx="42.519688" cy="28.346457" cx="42.519685"/>
     </g>
     <ellipse id="svg_112" fill-rule="evenodd" fill="#FFFFFF" stroke-linecap="round" stroke-width="0.75" stroke="#000000" ry="28.346457" rx="42.519688" cy="28.346457" cx="42.519685"/>
     <g id="svg_113" transform="matrix(1,0,0,1,1.4173241,1.4173222) ">
      <text id="svg_114" transform="matrix(1,0,0,-1,0,29.403778) " fill="#000000" class="TextStyle0" y="-4.949291" x="5.11246">Вывести расписание</text>
      <text id="svg_115" transform="matrix(1,0,0,-1,0,29.403778) " fill="#000000" class="TextStyle0" y="4.949291" x="11.434004">занятий текущей</text>
      <text id="svg_116" transform="matrix(1,0,0,-1,0,29.403778) " fill="#000000" class="TextStyle0" y="14.847875" x="28.157196">недели</text>
     </g>
    </g>
    <g id="svg_117" transform="matrix(1,0,0,1,482.6462,1286.2228) ">
     <title>Dynamic connector.16</title>
     <g id="svg_118">
      <title>Dynamic connector.16</title>
      <path id="svg_119" stroke-opacity="0" fill="none" stroke-dasharray="4 3" stroke-linecap="round" stroke-width="0.75" stroke="#000000" d="m16.96011,30.1513l-16.96011,-30.1513"/>
     </g>
     <path id="svg_120" fill="none" stroke-dasharray="4 3" stroke-linecap="round" stroke-width="0.75" stroke="#000000" d="m16.96011,30.1513l-16.96011,-30.1513"/>
    </g>
    <g id="svg_121" transform="matrix(1,0,0,1,467.71652,1321.6536) ">
     <title>Shape17</title>
     <g id="svg_122">
      <title>Shape17</title>
      <path id="svg_123" stroke-opacity="0" fill="none" stroke-linecap="round" stroke-width="0.75" stroke="#000000" d="m0,49.6063l55.98425,0l0,0l11.33858,-11.33858l0,0l0,-38.26772l0,0l-67.32283,0l0,0l0,49.6063"/>
     </g>
     <path id="svg_124" fill-rule="evenodd" fill="#FFFFFF" stroke-linecap="round" stroke-width="0.75" stroke="#000000" d="m0,49.6063l55.98425,0l0,0l11.33858,-11.33858l0,0l0,-38.26772l0,0l-67.32283,0l0,0l0,49.6063"/>
     <path id="svg_125" fill-rule="evenodd" fill="#FFFFFF" stroke-width="0" d="m55.98425,49.6063l0,-11.33858l0,0l11.33858,0l0,0l-11.33858,11.33858"/>
     <path id="svg_126" fill="none" stroke-linecap="round" stroke-width="0.75" stroke="#000000" d="m55.98425,49.6063l0,-11.33858l0,0l11.33858,0"/>
     <g id="svg_127" transform="matrix(1,0,0,1,1.4173203,1.4173241) ">
      <text id="svg_128" transform="matrix(1,0,0,-1,0,25.860474) " fill="#000000" class="TextStyle0" y="0" x="12.002668">первой или</text>
      <text id="svg_129" transform="matrix(1,0,0,-1,0,25.860474) " fill="#000000" class="TextStyle0" y="9.898582" x="19.92524">второй</text>
     </g>
    </g>
    <g id="svg_130" transform="matrix(1,0,0,1,446.4572,1161.0848) ">
     <title>Dynamic connector.18</title>
     <g id="svg_131">
      <title>Dynamic connector.18</title>
      <path id="svg_132" stroke-opacity="0" fill="none" stroke-width="0.75" stroke="#000000" d="m38.302541,7.912343l4.216611,10.924147l-10.924147,4.216611"/>
      <path id="svg_133" stroke-opacity="0" fill="none" stroke-dasharray="4 3" stroke-linecap="round" stroke-width="0.75" stroke="#000000" d="m0,0l42.51915,18.83649"/>
     </g>
     <path id="svg_134" fill="none" stroke-width="0.75" stroke="#000000" d="m38.302541,7.912343l4.216611,10.924147l-10.924147,4.216611"/>
     <path id="svg_135" fill="none" stroke-dasharray="4 3" stroke-linecap="round" stroke-width="0.75" stroke="#000000" d="m0,0l42.51915,18.83649"/>
     <g id="svg_136" transform="matrix(1,0,0,1,-35.31132,4.865999) ">
      <path id="svg_137" fill-rule="evenodd" fill="#FFFFFF" stroke-width="0" d="m40.32215,9.075954l32.74153,0l0,-8.37368l-32.74153,0l0,8.37368z"/>
      <text id="svg_138" transform="matrix(1,0,0,-1,0,6.8747244) " fill="#000000" class="TextStyle1" y="4.53685" x="40.32215">Включить</text>
     </g>
    </g>
    <g id="svg_139" transform="matrix(1,0,0,1,488.97638,1176.3779) ">
     <title>Shape19</title>
     <g id="svg_140">
      <title>Shape19</title>
      <ellipse id="svg_141" stroke-opacity="0" fill="none" stroke-linecap="round" stroke-width="0.75" stroke="#000000" ry="28.346457" rx="53.149605" cy="28.346457" cx="53.149606"/>
     </g>
     <ellipse id="svg_142" fill-rule="evenodd" fill="#FFFFFF" stroke-linecap="round" stroke-width="0.75" stroke="#000000" ry="28.346457" rx="53.149605" cy="28.346457" cx="53.149606"/>
     <g id="svg_143" transform="matrix(1,0,0,1,1.4173203,1.4173222) ">
      <text id="svg_144" transform="matrix(1,0,0,-1,0,29.403778) " fill="#000000" class="TextStyle0" y="-4.949291" x="17.274939">Перевести число из</text>
      <text id="svg_145" transform="matrix(1,0,0,-1,0,29.403778) " fill="#000000" class="TextStyle0" y="4.949291" x="15.474535">десятичной системы</text>
      <text id="svg_146" transform="matrix(1,0,0,-1,0,29.403778) " fill="#000000" class="TextStyle0" y="14.847875" x="12.030815">счисления в двоичную</text>
     </g>
    </g>
    <g id="svg_147" transform="matrix(1,0,0,1,457.08316,1137.4015) ">
     <title>Dynamic connector.20</title>
     <g id="svg_148">
      <title>Dynamic connector.20</title>
      <path id="svg_149" stroke-opacity="0" fill="none" stroke-width="0.75" stroke="#000000" d="m43.993581,-7.295267l9.159469,7.295267l-7.295267,9.159469"/>
      <path id="svg_150" stroke-opacity="0" fill="none" stroke-dasharray="4 3" stroke-linecap="round" stroke-width="0.75" stroke="#000000" d="m0,6.02185l53.15305,-6.02185"/>
     </g>
     <path id="svg_151" fill="none" stroke-width="0.75" stroke="#000000" d="m43.993581,-7.295267l9.159469,7.295267l-7.295267,9.159469"/>
     <path id="svg_152" fill="none" stroke-dasharray="4 3" stroke-linecap="round" stroke-width="0.75" stroke="#000000" d="m0,6.02185l53.15305,-6.02185"/>
     <g id="svg_153" transform="matrix(1,0,0,1,-29.934954,-1.6159277) ">
      <path id="svg_154" fill-rule="evenodd" fill="#FFFFFF" stroke-width="0" d="m40.32215,9.075954l32.74153,0l0,-8.37368l-32.74153,0l0,8.37368z"/>
      <text id="svg_155" transform="matrix(1,0,0,-1,0,6.8747244) " fill="#000000" class="TextStyle1" y="4.53685" x="40.32215">Включить</text>
     </g>
    </g>
    <g id="svg_156" transform="matrix(1,0,0,1,520.86615,1116.1417) ">
     <title>Shape21</title>
     <g id="svg_157">
      <title>Shape21</title>
      <ellipse id="svg_158" stroke-opacity="0" fill="none" stroke-linecap="round" stroke-width="0.75" stroke="#000000" ry="28.346457" rx="47.834644" cy="28.346457" cx="47.834646"/>
     </g>
     <ellipse id="svg_159" fill-rule="evenodd" fill="#FFFFFF" stroke-linecap="round" stroke-width="0.75" stroke="#000000" ry="28.346457" rx="47.834644" cy="28.346457" cx="47.834646"/>
     <g id="svg_160" transform="matrix(1,0,0,1,1.4173241,1.4173222) ">
      <text id="svg_161" transform="matrix(1,0,0,-1,0,29.403778) " fill="#000000" class="TextStyle0" y="0" x="4.699968">Завершить выполнение</text>
      <text id="svg_162" transform="matrix(1,0,0,-1,0,29.403778) " fill="#000000" class="TextStyle0" y="9.898582" x="26.034925">программы</text>
     </g>
    </g>
   </g>
  </g>
 </g>
 <style type="text/css">
  <![CDATA[ .TextStyle0 {font-family:Calibri;font-size:8.248819px;}.TextStyle1 {font-family:Times New Roman;font-size:7.5614176px;} ]]>
 </style>
 <g>
  <title>Layer 1</title>
  <g id="SFixTitle"/>
  <rect id="svg_163" height="7.246376" width="9.178743" y="185.12076" x="359.613482" stroke-width="0" stroke="#000" fill="#fff"/>
  <text stroke="#000" transform="matrix(0.7467280626296997,0,0,0.39269116520881653,90.83529861834904,100.94794094203598) " xml:space="preserve" text-anchor="start" font-family="Helvetica, Arial, sans-serif" font-size="24" id="svg_165" y="188.115929" x="358.647298" stroke-width="0" fill="#000000"/>
  <text stroke="#000" transform="matrix(0.26769266545965925,0,0,0.2981150482396456,262.3426042775111,133.97442562350062) " xml:space="preserve" text-anchor="start" font-family="Helvetica, Arial, sans-serif" font-size="24" id="svg_166" y="188.599021" x="362.512032" fill-opacity="null" stroke-opacity="null" stroke-width="0" fill="#000000">ые</text>
  <rect stroke="#000" id="svg_167" height="10.144927" width="10.144927" y="183.768106" x="382.318796" stroke-opacity="null" stroke-width="0" fill="#ffffff"/>
  <text stroke="#000" transform="matrix(0.5422044857651258,0,0,0.2794742221443691,175.34064547529667,138.34600771703228) " xml:space="preserve" text-anchor="start" font-family="Helvetica, Arial, sans-serif" font-size="24" id="svg_169" y="188.599021" x="384.251161" stroke-opacity="null" stroke-width="0" fill="#000000"/>
  <text stroke="#000" transform="matrix(0.2527450242836977,0,0,0.1902405254208901,287.4060211895319,153.53359717556924) " xml:space="preserve" text-anchor="start" font-family="Helvetica, Arial, sans-serif" font-size="24" id="svg_170" y="188.599021" x="385.217345" stroke-opacity="null" stroke-width="0" fill="#000000"/>
  <path stroke="#000" d="m382.80188,188.599014c0,0 0,0 0,0c0,0 0,-0.483078 0,-0.966171c0,-0.483093 0,-0.966187 0,-0.966187c0,-0.483093 0,-0.966187 0,-0.483093c0,0.483093 0.341614,0.624588 0,0.966187c-0.341614,0.341599 -0.624573,0.141495 -0.966187,0.483093c-0.341614,0.341599 0,0.483093 0,0c0,-0.483093 0,-0.966187 0,-0.966187c0,-0.483093 0.966187,-0.966187 0.483093,-0.966187c-0.483093,0 0,0.966187 0,0.966187c0,0.483093 0,0.966187 0,1.44928c0,0.483078 0,0.483078 -0.483093,0.483078c0,0 0,-0.483078 0,-0.966171c0,-0.483093 0,-0.966187 0,-0.966187l0,-0.483093l0.483093,0" id="svg_171" stroke-opacity="null" stroke-width="0" fill="none"/>
  <text stroke="#000" transform="matrix(0.2535642396188448,0,0,0.30487626791000366,297.6056293588648,116.31232942960378) " xml:space="preserve" text-anchor="start" font-family="Helvetica, Arial, sans-serif" font-size="24" id="svg_172" y="241.855361" x="334.074735" fill-opacity="null" stroke-opacity="null" stroke-width="0" fill="#000000">ла</text>
 </g>
 <g>
  <title>background</title>
  <rect fill="none" id="canvas_background" height="402" width="582" y="-1" x="-1"/>
 </g>
</svg>
